# Blender v2.82 (sub 7) OBJ File: ''
# www.blender.org
mtllib cow.mtl
o Cow_Untitled
v -0.152400 -0.127000 0.228600
v -0.152400 -0.127000 -0.228600
v 0.152400 -0.127000 -0.228600
v 0.152400 -0.127000 0.228600
v -0.152400 0.127000 0.228600
v 0.152400 0.127000 0.228600
v 0.152400 0.127000 -0.228600
v -0.152400 0.127000 -0.228600
v -0.101600 -0.025400 0.381000
v -0.101600 -0.025400 0.228600
v 0.101600 -0.025400 0.228600
v 0.101600 -0.025400 0.381000
v -0.101600 0.177800 0.381000
v 0.101600 0.177800 0.381000
v 0.101600 0.177800 0.228600
v -0.101600 0.177800 0.228600
v -0.127000 0.127000 0.330200
v -0.127000 0.127000 0.304800
v -0.101600 0.127000 0.304800
v -0.101600 0.127000 0.330200
v -0.127000 0.203200 0.330200
v -0.101600 0.203200 0.330200
v -0.101600 0.203200 0.304800
v -0.127000 0.203200 0.304800
v 0.101600 0.127000 0.330200
v 0.101600 0.127000 0.304800
v 0.127000 0.127000 0.304800
v 0.127000 0.127000 0.330200
v 0.101600 0.203200 0.330200
v 0.127000 0.203200 0.330200
v 0.127000 0.203200 0.304800
v 0.101600 0.203200 0.304800
v -0.152400 -0.431800 0.228600
v -0.152400 -0.431800 0.127000
v -0.050800 -0.431800 0.127000
v -0.050800 -0.431800 0.228600
v -0.152400 -0.127000 0.228600
v -0.050800 -0.127000 0.228600
v -0.050800 -0.127000 0.127000
v -0.152400 -0.127000 0.127000
v 0.050800 -0.431800 0.228600
v 0.050800 -0.431800 0.127000
v 0.152400 -0.431800 0.127000
v 0.152400 -0.431800 0.228600
v 0.050800 -0.127000 0.228600
v 0.152400 -0.127000 0.228600
v 0.152400 -0.127000 0.127000
v 0.050800 -0.127000 0.127000
v -0.152400 -0.431800 -0.127000
v -0.152400 -0.431800 -0.228600
v -0.050800 -0.431800 -0.228600
v -0.050800 -0.431800 -0.127000
v -0.152400 -0.127000 -0.127000
v -0.050800 -0.127000 -0.127000
v -0.050800 -0.127000 -0.228600
v -0.152400 -0.127000 -0.228600
v 0.050800 -0.431800 -0.127000
v 0.050800 -0.431800 -0.228600
v 0.152400 -0.431800 -0.228600
v 0.152400 -0.431800 -0.127000
v 0.050800 -0.127000 -0.127000
v 0.152400 -0.127000 -0.127000
v 0.152400 -0.127000 -0.228600
v 0.050800 -0.127000 -0.228600
vt 0.437471 0.781374
vt 0.437471 0.500000
vt 0.625000 0.500000
vt 0.625000 0.781374
vt 0.968583 0.781374
vt 0.781125 0.781374
vt 0.781125 0.500000
vt 0.968583 0.500000
vt 0.625000 0.937500
vt 0.437500 0.937500
vt 0.625000 0.781374
vt 0.812302 0.781374
vt 0.812500 0.937500
vt 0.625000 0.937500
vt 0.281316 0.781374
vt 0.281316 0.500000
vt 0.218733 0.906301
vt 0.218733 1.000000
vt 0.343746 1.000000
vt 0.343734 0.906301
vt 0.093742 0.905961
vt 0.218733 0.905961
vt 0.218733 1.000000
vt 0.093742 1.000000
vt 0.093742 0.781365
vt 0.218733 0.781365
vt 0.312536 0.781365
vt 0.312536 0.905961
vt 0.437389 0.781365
vt 0.437389 0.905961
vt 0.000000 0.781365
vt 0.000000 0.905961
vt 0.375000 0.984368
vt 0.375000 1.000000
vt 0.387500 1.000000
vt 0.387500 0.984368
vt 0.362500 0.984368
vt 0.375000 0.984368
vt 0.375000 1.000000
vt 0.362500 1.000000
vt 0.359223 0.937500
vt 0.374884 0.937500
vt 0.374884 0.984368
vt 0.359223 0.984368
vt 0.390546 0.937500
vt 0.390546 0.984368
vt 0.406208 0.937500
vt 0.406208 0.984368
vt 0.343561 0.937500
vt 0.343561 0.984368
vt 0.375000 0.984368
vt 0.375000 1.000000
vt 0.387500 1.000000
vt 0.387500 0.984368
vt 0.362500 0.984368
vt 0.375000 0.984368
vt 0.375000 1.000000
vt 0.362500 1.000000
vt 0.359223 0.937500
vt 0.374884 0.937500
vt 0.374884 0.984368
vt 0.359223 0.984368
vt 0.390546 0.937500
vt 0.390546 0.984368
vt 0.406208 0.937500
vt 0.406208 0.984368
vt 0.343561 0.937500
vt 0.343561 0.984368
vt 0.125000 0.687500
vt 0.125000 0.750000
vt 0.187500 0.750000
vt 0.187500 0.687500
vt 0.062500 0.687500
vt 0.125000 0.687500
vt 0.125000 0.750000
vt 0.062500 0.750000
vt 0.062500 0.500000
vt 0.125000 0.500000
vt 0.187500 0.500000
vt 0.187500 0.687500
vt 0.250000 0.500000
vt 0.250000 0.687500
vt 0.000000 0.500000
vt 0.000000 0.687500
vt 0.125000 0.687500
vt 0.125000 0.750000
vt 0.187500 0.750000
vt 0.187500 0.687500
vt 0.062500 0.687500
vt 0.125000 0.687500
vt 0.125000 0.750000
vt 0.062500 0.750000
vt 0.062500 0.500000
vt 0.125000 0.500000
vt 0.187500 0.500000
vt 0.187500 0.687500
vt 0.250000 0.500000
vt 0.250000 0.687500
vt 0.000000 0.500000
vt 0.000000 0.687500
vt 0.125000 0.687500
vt 0.125000 0.750000
vt 0.187500 0.750000
vt 0.187500 0.687500
vt 0.062500 0.687500
vt 0.125000 0.687500
vt 0.125000 0.750000
vt 0.062500 0.750000
vt 0.062500 0.500000
vt 0.125000 0.500000
vt 0.187500 0.500000
vt 0.187500 0.687500
vt 0.250000 0.500000
vt 0.250000 0.687500
vt 0.000000 0.500000
vt 0.000000 0.687500
vt 0.125000 0.687500
vt 0.125000 0.750000
vt 0.187500 0.750000
vt 0.187500 0.687500
vt 0.062500 0.687500
vt 0.125000 0.687500
vt 0.125000 0.750000
vt 0.062500 0.750000
vt 0.062500 0.500000
vt 0.125000 0.500000
vt 0.187500 0.500000
vt 0.187500 0.687500
vt 0.250000 0.500000
vt 0.250000 0.687500
vt 0.000000 0.500000
vt 0.000000 0.687500
vn 0.0000 -1.0000 -0.0000
vn 0.0000 1.0000 0.0000
vn 0.0000 -0.0000 1.0000
vn 1.0000 0.0000 0.0000
vn 0.0000 0.0000 -1.0000
vn -1.0000 0.0000 0.0000
usemtl 02_-_Default
s 1
f 1/1/1 2/2/1 3/3/1 4/4/1
f 5/5/2 6/6/2 7/7/2 8/8/2
f 1/1/3 4/4/3 6/9/3 5/10/3
f 4/4/4 3/3/4 7/7/4 6/6/4
f 3/11/5 2/12/5 8/13/5 7/14/5
f 2/2/6 1/1/6 5/15/6 8/16/6
f 9/17/1 10/18/1 11/19/1 12/20/1
f 13/21/2 14/22/2 15/23/2 16/24/2
f 9/25/3 12/26/3 14/22/3 13/21/3
f 12/26/4 11/27/4 15/28/4 14/22/4
f 11/27/5 10/29/5 16/30/5 15/28/5
f 10/31/6 9/25/6 13/21/6 16/32/6
f 17/33/1 18/34/1 19/35/1 20/36/1
f 21/37/2 22/38/2 23/39/2 24/40/2
f 17/41/3 20/42/3 22/43/3 21/44/3
f 20/42/4 19/45/4 23/46/4 22/43/4
f 19/45/5 18/47/5 24/48/5 23/46/5
f 18/49/6 17/41/6 21/44/6 24/50/6
f 25/51/1 26/52/1 27/53/1 28/54/1
f 29/55/2 30/56/2 31/57/2 32/58/2
f 25/59/3 28/60/3 30/61/3 29/62/3
f 28/60/4 27/63/4 31/64/4 30/61/4
f 27/63/5 26/65/5 32/66/5 31/64/5
f 26/67/6 25/59/6 29/62/6 32/68/6
f 33/69/1 34/70/1 35/71/1 36/72/1
f 37/73/2 38/74/2 39/75/2 40/76/2
f 33/77/3 36/78/3 38/74/3 37/73/3
f 36/78/4 35/79/4 39/80/4 38/74/4
f 35/79/5 34/81/5 40/82/5 39/80/5
f 34/83/6 33/77/6 37/73/6 40/84/6
f 41/85/1 42/86/1 43/87/1 44/88/1
f 45/89/2 46/90/2 47/91/2 48/92/2
f 41/93/3 44/94/3 46/90/3 45/89/3
f 44/94/4 43/95/4 47/96/4 46/90/4
f 43/95/5 42/97/5 48/98/5 47/96/5
f 42/99/6 41/93/6 45/89/6 48/100/6
f 49/101/1 50/102/1 51/103/1 52/104/1
f 53/105/2 54/106/2 55/107/2 56/108/2
f 49/109/3 52/110/3 54/106/3 53/105/3
f 52/110/4 51/111/4 55/112/4 54/106/4
f 51/111/5 50/113/5 56/114/5 55/112/5
f 50/115/6 49/109/6 53/105/6 56/116/6
f 57/117/1 58/118/1 59/119/1 60/120/1
f 61/121/2 62/122/2 63/123/2 64/124/2
f 57/125/3 60/126/3 62/122/3 61/121/3
f 60/126/4 59/127/4 63/128/4 62/122/4
f 59/127/5 58/129/5 64/130/5 63/128/5
f 58/131/6 57/125/6 61/121/6 64/132/6
